# Blender 4.4.0
# www.blender.org
mtllib portal_inner.mtl
o Circle
v 0.000000 0.100000 -1.500000
v -0.292636 0.100000 -1.471178
v -0.574025 0.100000 -1.385819
v -0.833355 0.100000 -1.247204
v -1.060660 0.100000 -1.060660
v -1.247204 0.100000 -0.833355
v -1.385819 0.100000 -0.574025
v -1.471178 0.100000 -0.292636
v -1.500000 0.100000 0.000000
v -1.471178 0.100000 0.292636
v -1.385819 0.100000 0.574025
v -1.247204 0.100000 0.833355
v -1.060660 0.100000 1.060660
v -0.833355 0.100000 1.247204
v -0.574025 0.100000 1.385819
v -0.292636 0.100000 1.471178
v 0.000000 0.100000 1.500000
v 0.292636 0.100000 1.471178
v 0.574025 0.100000 1.385819
v 0.833355 0.100000 1.247204
v 1.060660 0.100000 1.060660
v 1.247204 0.100000 0.833355
v 1.385819 0.100000 0.574025
v 1.471178 0.100000 0.292636
v 1.500000 0.100000 0.000000
v 1.471178 0.100000 -0.292636
v 1.385819 0.100000 -0.574025
v 1.247204 0.100000 -0.833355
v 1.060660 0.100000 -1.060660
v 0.833355 0.100000 -1.247204
v 0.574025 0.100000 -1.385819
v 0.292636 0.100000 -1.471178
v 0.000000 -0.000000 -1.000000
v -0.195090 -0.000000 -0.980785
v -0.382683 -0.000000 -0.923880
v -0.555570 -0.000000 -0.831470
v -0.707107 -0.000000 -0.707107
v -0.831470 -0.000000 -0.555570
v -0.923880 -0.000000 -0.382683
v -0.980785 -0.000000 -0.195090
v -1.000000 -0.000000 0.000000
v -0.980785 -0.000000 0.195090
v -0.923880 -0.000000 0.382683
v -0.831470 -0.000000 0.555570
v -0.707107 -0.000000 0.707107
v -0.555570 -0.000000 0.831470
v -0.382683 -0.000000 0.923880
v -0.195090 -0.000000 0.980785
v 0.000000 -0.000000 1.000000
v 0.195090 -0.000000 0.980785
v 0.382683 -0.000000 0.923880
v 0.555570 -0.000000 0.831470
v 0.707107 -0.000000 0.707107
v 0.831470 -0.000000 0.555570
v 0.923880 -0.000000 0.382683
v 0.980785 -0.000000 0.195090
v 1.000000 -0.000000 0.000000
v 0.980785 -0.000000 -0.195090
v 0.923880 -0.000000 -0.382683
v 0.831470 -0.000000 -0.555570
v 0.707107 -0.000000 -0.707107
v 0.555570 -0.000000 -0.831470
v 0.382683 -0.000000 -0.923880
v 0.195090 -0.000000 -0.980785
v -0.251387 0.057714 -1.263809
v -0.493114 0.057714 -1.190482
v -0.715890 0.057714 -1.071405
v -0.911155 0.057714 -0.911155
v -1.071405 0.057714 -0.715890
v -1.190482 0.057714 -0.493114
v -1.263809 0.057714 -0.251387
v -1.288568 0.057714 0.000000
v -1.263809 0.057714 0.251387
v -1.190482 0.057714 0.493114
v -1.071405 0.057714 0.715890
v -0.911155 0.057714 0.911155
v -0.715890 0.057714 1.071405
v -0.493114 0.057714 1.190482
v -0.251387 0.057714 1.263809
v 0.000000 0.057714 1.288568
v 0.251387 0.057714 1.263809
v 0.493114 0.057714 1.190482
v 0.715890 0.057714 1.071405
v 0.911155 0.057714 0.911155
v 1.071405 0.057714 0.715890
v 1.190482 0.057714 0.493114
v 1.263809 0.057714 0.251387
v 1.288568 0.057714 0.000000
v 1.263809 0.057714 -0.251387
v 1.190482 0.057714 -0.493114
v 1.071405 0.057714 -0.715890
v 0.911155 0.057714 -0.911155
v 0.715890 0.057714 -1.071405
v 0.493114 0.057714 -1.190482
v 0.251387 0.057714 -1.263809
v 0.000000 0.057714 -1.288568
v -1.130700 0.057714 0.604957
v -1.223678 0.057714 0.383681
v -1.276376 0.057714 -0.123786
v -1.277859 0.057714 0.108734
v 1.128829 0.057714 0.608458
v 0.993426 0.057714 0.810908
v -0.132024 0.057714 -1.275565
v 0.821162 0.057714 0.985011
v -1.227119 0.057714 -0.372338
v 0.140612 0.057714 -1.274719
v 0.591938 0.057714 1.137659
v -1.127368 0.057714 -0.611192
v 0.379012 0.057714 -1.225094
v 0.369382 0.057714 1.228015
v -1.004476 0.057714 -0.797444
v 0.619255 0.057714 -1.123058
v 0.129695 0.057714 1.275795
v -0.818618 0.057714 -0.987099
v 0.819681 0.057714 -0.986227
v -0.134488 0.057714 1.275322
v -0.616951 0.057714 -1.124290
v 1.006052 0.057714 -0.795523
v -0.354694 0.057714 1.232471
v -0.384095 0.057714 -1.223552
v 1.134256 0.057714 -0.598304
v -0.586832 0.057714 1.140388
v 1.224754 0.057714 -0.380135
v -0.803484 0.057714 0.999519
v 1.278532 0.057714 -0.101902
v -0.985411 0.057714 0.820674
v 1.274052 0.057714 0.147387
v 1.229359 0.057714 0.364952
v -0.000014 0.129417 -1.494117
v -0.291455 0.129417 -1.465414
v -0.571729 0.129417 -1.380402
v -0.830054 0.129417 -1.242334
v -1.056467 0.129417 -1.056533
v -1.242297 0.129417 -0.830110
v -1.380389 0.129417 -0.571761
v -1.465407 0.129417 -0.291491
v -1.494117 0.129417 0.000031
v -1.465406 0.129417 0.291496
v -1.380393 0.129417 0.571751
v -1.242322 0.129417 0.830073
v -1.056528 0.129417 1.056472
v -0.830135 0.129417 1.242280
v -0.571839 0.129417 1.380357
v -0.291507 0.129417 1.465404
v 0.000008 0.129417 1.494117
v 0.291486 0.129417 1.465408
v 0.571805 0.129417 1.380371
v 0.830093 0.129417 1.242309
v 1.056482 0.129417 1.056518
v 1.242314 0.129417 0.830085
v 1.380382 0.129417 0.571779
v 1.465413 0.129417 0.291458
v 1.494117 0.129417 -0.000085
v 1.465403 0.129417 -0.291511
v 1.380385 0.129417 -0.571771
v 1.242279 0.129417 -0.830137
v 1.056463 0.129417 -1.056537
v 0.830047 0.129417 -1.242339
v 0.571736 0.129417 -1.380399
v 0.291446 0.129417 -1.465416
v 0.000000 0.029417 -0.994117
v -0.193943 0.029417 -0.975015
v -0.380432 0.029417 -0.918444
v -0.552302 0.029417 -0.826578
v -0.702947 0.029417 -0.702947
v -0.826578 0.029417 -0.552302
v -0.918444 0.029417 -0.380432
v -0.975015 0.029417 -0.193943
v -0.994117 0.029417 0.000000
v -0.975015 0.029417 0.193943
v -0.918444 0.029417 0.380432
v -0.826578 0.029417 0.552302
v -0.702947 0.029417 0.702947
v -0.552302 0.029417 0.826578
v -0.380432 0.029417 0.918444
v -0.193943 0.029417 0.975015
v 0.000000 0.029417 0.994117
v 0.193943 0.029417 0.975015
v 0.380432 0.029417 0.918444
v 0.552302 0.029417 0.826578
v 0.702947 0.029417 0.702947
v 0.826578 0.029417 0.552302
v 0.918444 0.029417 0.380432
v 0.975015 0.029417 0.193943
v 0.994117 0.029417 -0.000000
v 0.975015 0.029417 -0.193943
v 0.918444 0.029417 -0.380432
v 0.826578 0.029417 -0.552302
v 0.702947 0.029417 -0.702947
v 0.552302 0.029417 -0.826578
v 0.380432 0.029417 -0.918444
v 0.193943 0.029417 -0.975015
v -0.250239 0.087131 -1.258038
v -0.490862 0.087131 -1.185046
v -0.712622 0.087131 -1.066513
v -0.906995 0.087131 -0.906995
v -1.066513 0.087131 -0.712622
v -1.185046 0.087131 -0.490862
v -1.258038 0.087131 -0.250239
v -1.282685 0.087131 0.000000
v -1.258038 0.087131 0.250239
v -1.185046 0.087131 0.490862
v -1.066513 0.087131 0.712622
v -0.906995 0.087131 0.906995
v -0.712622 0.087131 1.066513
v -0.490862 0.087131 1.185046
v -0.250239 0.087131 1.258038
v 0.000000 0.087131 1.282685
v 0.250239 0.087131 1.258038
v 0.490862 0.087131 1.185046
v 0.712622 0.087131 1.066513
v 0.906995 0.087131 0.906995
v 1.066513 0.087131 0.712622
v 1.185046 0.087131 0.490862
v 1.258038 0.087131 0.250239
v 1.282685 0.087131 0.000000
v 1.258038 0.087131 -0.250239
v 1.185046 0.087131 -0.490862
v 1.066513 0.087131 -0.712622
v 0.906995 0.087131 -0.906995
v 0.712622 0.087131 -1.066513
v 0.490862 0.087131 -1.185046
v 0.250239 0.087131 -1.258038
v -0.000000 0.087131 -1.282685
v -1.125487 0.087126 0.602171
v -1.218022 0.087126 0.381965
v -1.270494 0.087126 -0.123207
v -1.271977 0.087126 0.108154
v 1.123616 0.087126 0.605672
v 0.988857 0.087126 0.807159
v -0.131445 0.087126 -1.269683
v 0.817412 0.087126 0.980442
v -1.221462 0.087126 -0.370622
v 0.140032 0.087126 -1.268837
v 0.589151 0.087126 1.132447
v -1.122155 0.087126 -0.608406
v 0.377296 0.087126 -1.219438
v 0.367666 0.087126 1.222359
v -0.999907 0.087126 -0.793694
v 0.616469 0.087126 -1.117845
v 0.129115 0.087126 1.269912
v -0.814868 0.087126 -0.982530
v 0.815931 0.087126 -0.981657
v -0.133909 0.087126 1.269440
v -0.614164 0.087126 -1.119077
v 1.001483 0.087126 -0.791773
v -0.352978 0.087126 1.226815
v -0.382379 0.087126 -1.217896
v 1.129044 0.087126 -0.595518
v -0.584045 0.087126 1.135176
v 1.219097 0.087126 -0.378419
v -0.799734 0.087126 0.994950
v 1.272650 0.087126 -0.101323
v -0.980842 0.087126 0.816924
v 1.268170 0.087126 0.146807
v 1.223703 0.087126 0.363236
vn -0.0572 -0.9804 -0.1885
vn -0.0929 -0.9804 -0.1738
vn -0.1250 -0.9804 -0.1523
vn -0.1523 -0.9804 -0.1250
vn -0.1738 -0.9804 -0.0929
vn -0.1885 -0.9804 -0.0572
vn -0.1961 -0.9804 -0.0193
vn -0.1961 -0.9804 0.0193
vn -0.1885 -0.9804 0.0572
vn -0.1738 -0.9804 0.0929
vn -0.1523 -0.9804 0.1250
vn -0.1250 -0.9804 0.1523
vn -0.0929 -0.9804 0.1738
vn -0.0572 -0.9804 0.1885
vn -0.0193 -0.9804 0.1961
vn 0.0193 -0.9804 0.1961
vn 0.0572 -0.9804 0.1885
vn 0.0929 -0.9804 0.1738
vn 0.1250 -0.9804 0.1523
vn 0.1523 -0.9804 0.1250
vn 0.1738 -0.9804 0.0929
vn 0.1885 -0.9804 0.0572
vn 0.1961 -0.9804 0.0193
vn 0.1961 -0.9804 -0.0193
vn 0.1885 -0.9804 -0.0572
vn 0.1738 -0.9804 -0.0929
vn 0.1523 -0.9804 -0.1250
vn 0.1250 -0.9804 -0.1523
vn 0.0929 -0.9804 -0.1738
vn 0.0572 -0.9804 -0.1885
vn 0.0193 -0.9804 -0.1961
vn -0.0193 -0.9804 -0.1961
vn 0.0572 0.9804 0.1885
vn 0.0929 0.9804 0.1738
vn 0.1250 0.9804 0.1523
vn 0.1523 0.9804 0.1250
vn 0.1738 0.9804 0.0928
vn 0.1886 0.9804 0.0572
vn 0.1961 0.9804 0.0193
vn 0.1961 0.9804 -0.0194
vn 0.1885 0.9804 -0.0572
vn 0.1737 0.9804 -0.0929
vn 0.1523 0.9804 -0.1250
vn 0.1250 0.9804 -0.1523
vn 0.0928 0.9804 -0.1738
vn 0.0572 0.9804 -0.1886
vn 0.0193 0.9804 -0.1961
vn -0.0194 0.9804 -0.1961
vn -0.0572 0.9804 -0.1885
vn -0.0929 0.9804 -0.1737
vn -0.1250 0.9804 -0.1523
vn -0.1523 0.9804 -0.1250
vn -0.1738 0.9804 -0.0928
vn -0.1886 0.9804 -0.0572
vn -0.1961 0.9804 -0.0193
vn -0.1961 0.9804 0.0194
vn -0.1885 0.9804 0.0572
vn -0.1737 0.9804 0.0929
vn -0.1523 0.9804 0.1250
vn -0.1250 0.9804 0.1523
vn -0.0928 0.9804 0.1738
vn -0.0571 0.9804 0.1886
vn -0.0193 0.9804 0.1961
vn 0.0194 0.9804 0.1961
vn 0.0193 0.9804 0.1961
vn -0.0572 0.9804 0.1886
vn -0.0929 0.9804 0.1738
vn -0.1738 0.9804 0.0929
vn -0.1886 0.9804 0.0572
vn -0.1961 0.9804 0.0193
vn -0.1738 0.9804 -0.0929
vn -0.0929 0.9804 -0.1738
vn -0.0572 0.9804 -0.1886
vn -0.0193 0.9804 -0.1961
vn 0.0929 0.9804 -0.1738
vn 0.1738 0.9804 -0.0929
vn 0.1886 0.9804 -0.0572
vn 0.1961 0.9804 -0.0193
vn 0.1738 0.9804 0.0929
vn 0.0572 0.9804 0.1886
vn 0.1738 0.9804 -0.0928
vn -0.1738 0.9804 0.0928
vn 0.1886 0.9804 -0.0571
vn 0.1961 0.9804 0.0194
vn -0.0572 0.9804 0.1885
vn -0.0194 0.9804 0.1961
vn 0.0929 0.9804 -0.1737
vn 0.0572 0.9804 -0.1885
vn 0.0194 0.9804 -0.1961
vn -0.0928 0.9804 -0.1738
vn 0.0571 0.9804 0.1886
vn 0.0928 0.9804 0.1738
vn -0.1737 0.9804 -0.0929
vn -0.1885 0.9804 -0.0572
vn -0.1961 0.9804 -0.0194
vn 0.1737 0.9804 0.0929
vn 0.1885 0.9804 0.0572
vn 0.0961 -0.1952 0.9760
vn 0.2847 -0.1952 0.9385
vn 0.4623 -0.1952 0.8650
vn 0.6222 -0.1952 0.7581
vn 0.7581 -0.1952 0.6222
vn 0.8650 -0.1952 0.4623
vn 0.9385 -0.1952 0.2847
vn 0.9760 -0.1952 0.0961
vn 0.9760 -0.1952 -0.0961
vn 0.9385 -0.1952 -0.2847
vn 0.8650 -0.1952 -0.4623
vn 0.7581 -0.1952 -0.6222
vn 0.6222 -0.1952 -0.7581
vn 0.4623 -0.1952 -0.8650
vn 0.2847 -0.1952 -0.9385
vn 0.0961 -0.1952 -0.9760
vn -0.0961 -0.1952 -0.9760
vn -0.2847 -0.1952 -0.9385
vn -0.4623 -0.1952 -0.8650
vn -0.6222 -0.1952 -0.7581
vn -0.7581 -0.1952 -0.6222
vn -0.8650 -0.1952 -0.4623
vn -0.9385 -0.1952 -0.2847
vn -0.9760 -0.1952 -0.0961
vn -0.9760 -0.1952 0.0961
vn -0.9385 -0.1952 0.2847
vn -0.8650 -0.1952 0.4623
vn -0.7581 -0.1952 0.6222
vn -0.6222 -0.1952 0.7581
vn -0.4623 -0.1952 0.8650
vn -0.2847 -0.1952 0.9385
vn -0.0961 -0.1952 0.9760
vn -0.8778 0.1024 -0.4679
vn -0.1018 0.1035 0.9894
vn -0.6713 0.1116 -0.7327
vn -0.4224 0.0929 0.9016
vn -0.7464 0.0960 -0.6585
vn -0.3258 0.1089 0.9391
vn -0.4660 0.1023 -0.8788
vn -0.6377 0.1040 0.7632
vn 0.8881 0.1074 0.4470
vn 0.0781 0.0991 -0.9920
vn 0.9690 0.1151 0.2188
vn -0.1707 0.0887 -0.9813
vn 0.9917 0.1077 0.0703
vn -0.3104 0.0978 -0.9456
vn 0.9823 0.1119 -0.1502
vn -0.5141 0.0928 -0.8527
vn -0.9443 0.0972 -0.3144
vn 0.0664 0.1079 0.9919
vn 0.9440 0.1072 -0.3120
vn -0.6464 0.0984 -0.7566
vn -0.9861 0.0948 -0.1363
vn 0.2478 0.1101 0.9625
vn 0.8528 0.1107 -0.5104
vn -0.7977 0.0939 -0.5957
vn -0.9953 0.0905 0.0351
vn 0.4121 0.1137 0.9040
vn 0.7801 0.0990 -0.6178
vn -0.8662 0.1060 -0.4884
vn -0.9678 0.0923 0.2341
vn 0.5845 0.1131 0.8035
vn -0.8623 0.1076 0.4948
vn 0.7851 0.0984 0.6115
vn -0.7753 0.1007 0.6235
vn 0.8698 0.1049 0.4822
vn -0.6215 0.1050 0.7763
vn 0.9539 0.1013 0.2824
vn -0.4275 0.1102 0.8973
vn 0.9940 0.0945 0.0545
vn -0.3163 0.0971 0.9437
vn 0.9921 0.1079 -0.0645
vn 0.6596 0.0953 -0.7455
vn -0.9386 0.1097 -0.3270
vn -0.1054 0.1011 0.9893
vn 0.9554 0.1050 -0.2760
vn 0.5065 0.0945 -0.8570
vn -0.9836 0.1107 -0.1427
vn 0.1141 0.1052 0.9879
vn 0.8720 0.1004 -0.4790
vn 0.3061 0.0986 -0.9469
vn -0.9915 0.1069 0.0745
vn 0.2682 0.0992 0.9582
vn 0.7850 0.1069 -0.6102
vn 0.1623 0.0907 -0.9826
vn -0.9675 0.1139 0.2257
vn 0.5269 0.1149 0.8421
vn 0.5773 0.0900 -0.8116
vn -0.1234 0.1070 -0.9866
vn -0.8673 0.0992 0.4878
vn 0.6854 0.1150 0.7190
vn 0.4013 0.0879 -0.9117
vn -0.2917 0.1029 -0.9510
vn -0.7705 0.1027 0.6291
vn 0.7542 0.0984 0.6493
vn 0.3154 0.1068 -0.9429
s 0
f 65//1 120//1 2//1
f 66//2 117//2 3//2
f 67//3 114//3 4//3
f 68//4 111//4 5//4
f 69//5 108//5 6//5
f 70//6 105//6 7//6
f 71//7 99//7 8//7
f 72//8 100//8 9//8
f 73//9 98//9 10//9
f 74//10 97//10 11//10
f 75//11 126//11 12//11
f 76//12 124//12 13//12
f 77//13 122//13 14//13
f 78//14 119//14 15//14
f 79//15 116//15 16//15
f 80//16 113//16 17//16
f 81//17 110//17 18//17
f 82//18 107//18 19//18
f 83//19 104//19 20//19
f 84//20 102//20 21//20
f 85//21 101//21 22//21
f 86//22 128//22 23//22
f 87//23 127//23 24//23
f 88//24 125//24 25//24
f 89//25 123//25 26//25
f 90//26 121//26 27//26
f 91//27 118//27 28//27
f 92//28 115//28 29//28
f 93//29 112//29 30//29
f 94//30 109//30 31//30
f 95//31 106//31 32//31
f 96//32 103//32 1//32
f 33//32 34//32 65//32 103//32 96//32
f 64//31 33//31 96//31 106//31 95//31
f 63//30 64//30 95//30 109//30 94//30
f 62//29 63//29 94//29 112//29 93//29
f 61//28 62//28 93//28 115//28 92//28
f 60//27 61//27 92//27 118//27 91//27
f 59//26 60//26 91//26 121//26 90//26
f 58//25 59//25 90//25 123//25 89//25
f 57//24 58//24 89//24 125//24 88//24
f 56//23 57//23 88//23 127//23 87//23
f 55//22 56//22 87//22 128//22 86//22
f 54//21 55//21 86//21 101//21 85//21
f 53//20 54//20 85//20 102//20 84//20
f 52//19 53//19 84//19 104//19 83//19
f 51//18 52//18 83//18 107//18 82//18
f 50//17 51//17 82//17 110//17 81//17
f 49//16 50//16 81//16 113//16 80//16
f 48//15 49//15 80//15 116//15 79//15
f 47//14 48//14 79//14 119//14 78//14
f 46//13 47//13 78//13 122//13 77//13
f 45//12 46//12 77//12 124//12 76//12
f 44//11 45//11 76//11 126//11 75//11
f 43//10 44//10 75//10 97//10 74//10
f 42//9 43//9 74//9 98//9 73//9
f 41//8 42//8 73//8 100//8 72//8
f 40//7 41//7 72//7 99//7 71//7
f 39//6 40//6 71//6 105//6 70//6
f 38//5 39//5 70//5 108//5 69//5
f 37//4 38//4 69//4 111//4 68//4
f 36//3 37//3 68//3 114//3 67//3
f 35//2 36//2 67//2 117//2 66//2
f 34//1 35//1 66//1 120//1 65//1
f 12//10 97//10 75//10
f 10//8 100//8 73//8
f 28//26 121//26 91//26
f 11//9 98//9 74//9
f 9//7 99//7 72//7
f 29//27 118//27 92//27
f 30//28 115//28 93//28
f 31//29 112//29 94//29
f 13//11 126//11 76//11
f 32//30 109//30 95//30
f 14//12 124//12 77//12
f 1//31 106//31 96//31
f 15//13 122//13 78//13
f 2//32 103//32 65//32
f 16//14 119//14 79//14
f 17//15 116//15 80//15
f 18//16 113//16 81//16
f 19//17 110//17 82//17
f 20//18 107//18 83//18
f 21//19 104//19 84//19
f 3//1 120//1 66//1
f 22//20 102//20 85//20
f 4//2 117//2 67//2
f 23//21 101//21 86//21
f 5//3 114//3 68//3
f 24//22 128//22 87//22
f 6//4 111//4 69//4
f 25//23 127//23 88//23
f 7//5 108//5 70//5
f 26//24 125//24 89//24
f 8//6 105//6 71//6
f 27//25 123//25 90//25
f 193//33 130//33 248//33
f 194//34 131//34 245//34
f 195//35 132//35 242//35
f 196//36 133//36 239//36
f 197//37 134//37 236//37
f 198//38 135//38 233//38
f 199//39 136//39 227//39
f 200//40 137//40 228//40
f 201//41 138//41 226//41
f 202//42 139//42 225//42
f 203//43 140//43 254//43
f 204//44 141//44 252//44
f 205//45 142//45 250//45
f 206//46 143//46 247//46
f 207//47 144//47 244//47
f 208//48 145//48 241//48
f 209//49 146//49 238//49
f 210//50 147//50 235//50
f 211//51 148//51 232//51
f 212//52 149//52 230//52
f 213//53 150//53 229//53
f 214//54 151//54 256//54
f 215//55 152//55 255//55
f 216//56 153//56 253//56
f 217//57 154//57 251//57
f 218//58 155//58 249//58
f 219//59 156//59 246//59
f 220//60 157//60 243//60
f 221//61 158//61 240//61
f 222//62 159//62 237//62
f 223//63 160//63 234//63
f 224//64 129//64 231//64
f 161//65 224//65 231//65 193//65 162//65
f 192//63 223//63 234//63 224//63 161//63
f 191//66 222//66 237//66 223//66 192//66
f 190//67 221//67 240//67 222//67 191//67
f 189//60 220//60 243//60 221//60 190//60
f 188//59 219//59 246//59 220//59 189//59
f 187//68 218//68 249//68 219//68 188//68
f 186//69 217//69 251//69 218//69 187//69
f 185//70 216//70 253//70 217//70 186//70
f 184//55 215//55 255//55 216//55 185//55
f 183//54 214//54 256//54 215//54 184//54
f 182//71 213//71 229//71 214//71 183//71
f 181//52 212//52 230//52 213//52 182//52
f 180//51 211//51 232//51 212//51 181//51
f 179//72 210//72 235//72 211//72 180//72
f 178//73 209//73 238//73 210//73 179//73
f 177//74 208//74 241//74 209//74 178//74
f 176//47 207//47 244//47 208//47 177//47
f 175//46 206//46 247//46 207//46 176//46
f 174//75 205//75 250//75 206//75 175//75
f 173//44 204//44 252//44 205//44 174//44
f 172//43 203//43 254//43 204//43 173//43
f 171//76 202//76 225//76 203//76 172//76
f 170//77 201//77 226//77 202//77 171//77
f 169//78 200//78 228//78 201//78 170//78
f 168//39 199//39 227//39 200//39 169//39
f 167//38 198//38 233//38 199//38 168//38
f 166//79 197//79 236//79 198//79 167//79
f 165//36 196//36 239//36 197//36 166//36
f 164//35 195//35 242//35 196//35 165//35
f 163//34 194//34 245//34 195//34 164//34
f 162//80 193//80 248//80 194//80 163//80
f 140//81 203//81 225//81
f 138//78 201//78 228//78
f 156//82 219//82 249//82
f 139//83 202//83 226//83
f 137//84 200//84 227//84
f 157//59 220//59 246//59
f 158//60 221//60 243//60
f 159//67 222//67 240//67
f 141//43 204//43 254//43
f 160//85 223//85 237//85
f 142//44 205//44 252//44
f 129//86 224//86 234//86
f 143//87 206//87 250//87
f 130//65 193//65 231//65
f 144//88 207//88 247//88
f 145//89 208//89 244//89
f 146//74 209//74 241//74
f 147//73 210//73 238//73
f 148//90 211//90 235//90
f 149//51 212//51 232//51
f 131//91 194//91 248//91
f 150//52 213//52 230//52
f 132//92 195//92 245//92
f 151//93 214//93 229//93
f 133//35 196//35 242//35
f 152//94 215//94 256//94
f 134//36 197//36 239//36
f 153//95 216//95 255//95
f 135//96 198//96 236//96
f 154//70 217//70 253//70
f 136//97 199//97 233//97
f 155//69 218//69 251//69
f 34//98 33//98 161//98 162//98
f 35//99 34//99 162//99 163//99
f 36//100 35//100 163//100 164//100
f 37//101 36//101 164//101 165//101
f 38//102 37//102 165//102 166//102
f 39//103 38//103 166//103 167//103
f 40//104 39//104 167//104 168//104
f 41//105 40//105 168//105 169//105
f 42//106 41//106 169//106 170//106
f 43//107 42//107 170//107 171//107
f 44//108 43//108 171//108 172//108
f 45//109 44//109 172//109 173//109
f 46//110 45//110 173//110 174//110
f 47//111 46//111 174//111 175//111
f 48//112 47//112 175//112 176//112
f 49//113 48//113 176//113 177//113
f 50//114 49//114 177//114 178//114
f 51//115 50//115 178//115 179//115
f 52//116 51//116 179//116 180//116
f 53//117 52//117 180//117 181//117
f 54//118 53//118 181//118 182//118
f 55//119 54//119 182//119 183//119
f 56//120 55//120 183//120 184//120
f 57//121 56//121 184//121 185//121
f 58//122 57//122 185//122 186//122
f 59//123 58//123 186//123 187//123
f 60//124 59//124 187//124 188//124
f 61//125 60//125 188//125 189//125
f 62//126 61//126 189//126 190//126
f 63//127 62//127 190//127 191//127
f 64//128 63//128 191//128 192//128
f 33//129 64//129 192//129 161//129
f 97//130 12//130 140//130 225//130
f 11//131 97//131 225//131 139//131
f 100//132 10//132 138//132 228//132
f 9//133 100//133 228//133 137//133
f 98//134 11//134 139//134 226//134
f 10//135 98//135 226//135 138//135
f 99//136 9//136 137//136 227//136
f 8//137 99//137 227//137 136//137
f 121//138 28//138 156//138 249//138
f 27//139 121//139 249//139 155//139
f 118//140 29//140 157//140 246//140
f 28//141 118//141 246//141 156//141
f 115//142 30//142 158//142 243//142
f 29//143 115//143 243//143 157//143
f 112//144 31//144 159//144 240//144
f 30//145 112//145 240//145 158//145
f 126//146 13//146 141//146 254//146
f 12//147 126//147 254//147 140//147
f 109//148 32//148 160//148 237//148
f 31//149 109//149 237//149 159//149
f 124//150 14//150 142//150 252//150
f 13//151 124//151 252//151 141//151
f 106//152 1//152 129//152 234//152
f 32//153 106//153 234//153 160//153
f 122//154 15//154 143//154 250//154
f 14//155 122//155 250//155 142//155
f 103//156 2//156 130//156 231//156
f 1//157 103//157 231//157 129//157
f 119//158 16//158 144//158 247//158
f 15//159 119//159 247//159 143//159
f 116//160 17//160 145//160 244//160
f 16//161 116//161 244//161 144//161
f 113//162 18//162 146//162 241//162
f 17//163 113//163 241//163 145//163
f 110//164 19//164 147//164 238//164
f 18//165 110//165 238//165 146//165
f 107//166 20//166 148//166 235//166
f 19//167 107//167 235//167 147//167
f 104//168 21//168 149//168 232//168
f 20//169 104//169 232//169 148//169
f 120//170 3//170 131//170 248//170
f 2//171 120//171 248//171 130//171
f 102//172 22//172 150//172 230//172
f 21//173 102//173 230//173 149//173
f 117//174 4//174 132//174 245//174
f 3//175 117//175 245//175 131//175
f 101//176 23//176 151//176 229//176
f 22//177 101//177 229//177 150//177
f 114//178 5//178 133//178 242//178
f 4//179 114//179 242//179 132//179
f 128//180 24//180 152//180 256//180
f 23//181 128//181 256//181 151//181
f 111//182 6//182 134//182 239//182
f 5//183 111//183 239//183 133//183
f 127//184 25//184 153//184 255//184
f 24//185 127//185 255//185 152//185
f 108//186 7//186 135//186 236//186
f 6//187 108//187 236//187 134//187
f 125//188 26//188 154//188 253//188
f 25//189 125//189 253//189 153//189
f 105//190 8//190 136//190 233//190
f 7//191 105//191 233//191 135//191
f 123//192 27//192 155//192 251//192
f 26//193 123//193 251//193 154//193
