# Blender 4.4.0
# www.blender.org
mtllib text_1.mtl
o Text
v 0.101000 -0.000000 0.050000
v 0.101000 0.341000 0.050000
v 0.150000 0.341000 0.050000
v 0.150000 -0.000000 0.050000
v 0.101000 0.000000 -0.050000
v 0.101000 0.341000 -0.050000
v 0.150000 0.341000 -0.050000
v 0.150000 0.000000 -0.050000
v 0.101000 0.000000 -0.050000
v 0.101000 -0.000000 0.050000
v 0.101000 0.341000 -0.050000
v 0.101000 0.341000 0.050000
v 0.150000 0.341000 -0.050000
v 0.150000 0.341000 0.050000
v 0.150000 0.000000 -0.050000
v 0.150000 -0.000000 0.050000
vn -0.0000 -0.0000 1.0000
vn -0.0000 -0.0000 -1.0000
vn -0.7071 -0.7071 -0.0000
vn -0.7071 0.7071 -0.0000
vn 0.7071 0.7071 -0.0000
vn 0.7071 -0.7071 -0.0000
vt 0.000000 0.000000
vt 0.666667 0.000000
vt 0.333333 0.000000
vt 1.000000 0.000000
vt 0.000000 1.000000
vt 0.250000 1.000000
vt 0.250000 0.000000
vt 0.500000 1.000000
vt 0.500000 0.000000
vt 0.750000 1.000000
vt 0.750000 0.000000
vt 1.000000 1.000000
s 0
f 1/1/1 3/2/1 2/3/1
f 1/1/1 4/4/1 3/2/1
f 5/1/2 6/3/2 7/2/2
f 5/1/2 7/2/2 8/4/2
s 1
f 10/5/3 12/6/4 11/7/4 9/1/3
f 12/6/4 14/8/5 13/9/5 11/7/4
f 14/8/5 16/10/6 15/11/6 13/9/5
f 16/10/6 10/12/3 9/4/3 15/11/6
